PathFileType	4	(X/Y/Z)	Gait_norma_markers.trc
DataRate	CameraRate	NumFrames	NumMarkers	Units	OrigDataRate	OrigDataStartFrame	OrigNumFrames
100	100	4	74	m	100	46	90
Frame#	Time	PELO			PELA			PELL			PELP			LFEO			LFEA			LFEL			LFEP			LTIO			LTIA			LTIL			LTIP			LFOO			LFOA			LFOL			LFOP			LTOO			LTOA			LTOL			LTOP			RFEO			RFEA			RFEL			RFEP			RTIO			RTIA			RTIL			RTIP			RFOO			RFOA			RFOL			RFOP			RTOO			RTOA			RTOL			RTOP			RASI			RPSI			LPSI			LASI			RTROCH			RTHI			RTHI2			RTHI3			RTHI4			RKNE			RKNEM			RTIB			RTIB2			RTIB3			RTIB4			RANK			RANKM			RHEE			RTOE			RTOEL			RTOEM			LTROCH			LTHI			LTHI2			LTHI3			LTHI4			LKNE			LKNEM			LTIB			LTIB2			LTIB3			LTIB4			LANK			LANKM			LHEE			LTOE			LTOEL			LTOEM
		X1	Y1	Z1	X2	Y2	Z2	X3	Y3	Z3	X4	Y4	Z4	X5	Y5	Z5	X6	Y6	Z6	X7	Y7	Z7	X8	Y8	Z8	X9	Y9	Z9	X10	Y10	Z10	X11	Y11	Z11	X12	Y12	Z12	X13	Y13	Z13	X14	Y14	Z14	X15	Y15	Z15	X16	Y16	Z16	X17	Y17	Z17	X18	Y18	Z18	X19	Y19	Z19	X20	Y20	Z20	X21	Y21	Z21	X22	Y22	Z22	X23	Y23	Z23	X24	Y24	Z24	X25	Y25	Z25	X26	Y26	Z26	X27	Y27	Z27	X28	Y28	Z28	X29	Y29	Z29	X30	Y30	Z30	X31	Y31	Z31	X32	Y32	Z32	X33	Y33	Z33	X34	Y34	Z34	X35	Y35	Z35	X36	Y36	Z36	X37	Y37	Z37	X38	Y38	Z38	X39	Y39	Z39	X40	Y40	Z40	X41	Y41	Z41	X42	Y42	Z42	X43	Y43	Z43	X44	Y44	Z44	X45	Y45	Z45	X46	Y46	Z46	X47	Y47	Z47	X48	Y48	Z48	X49	Y49	Z49	X50	Y50	Z50	X51	Y51	Z51	X52	Y52	Z52	X53	Y53	Z53	X54	Y54	Z54	X55	Y55	Z55	X56	Y56	Z56	X57	Y57	Z57	X58	Y58	Z58	X59	Y59	Z59	X60	Y60	Z60	X61	Y61	Z61	X62	Y62	Z62	X63	Y63	Z63	X64	Y64	Z64	X65	Y65	Z65	X66	Y66	Z66	X67	Y67	Z67	X68	Y68	Z68	X69	Y69	Z69	X70	Y70	Z70	X71	Y71	Z71	X72	Y72	Z72	X73	Y73	Z73	X74	Y74	Z74

46	0.450000	-0.195817	0.894057	-0.393513	-0.202039	0.875169	-0.251704	-0.052805	0.896945	-0.386853	-0.199555	1.035973	-0.374774	-0.134202	0.533633	-0.346323	-0.133807	0.576865	0.015795	0.230355	0.523799	-0.345547	-0.124346	0.895617	-0.389550	-0.151697	0.095830	-0.387816	-0.058912	0.053420	0.020546	0.258520	0.088344	-0.481800	-0.134965	0.514534	-0.348133	-0.104950	0.085595	-0.232010	-0.099660	0.313021	-0.240304	0.117954	0.078744	-0.277691	-0.150838	0.078534	-0.454864	-0.089654	0.087948	-0.157725	-0.087890	0.163757	-0.160490	-0.015352	0.085665	-0.172952	-0.104950	0.085595	-0.232010	-0.327921	0.559611	-0.263394	-0.381781	0.702492	0.066986	0.026889	0.524414	-0.190330	-0.267289	0.892498	-0.397475	-0.271215	0.263999	-0.552185	-0.293579	-0.015408	-0.270570	0.121796	0.286799	-0.498353	-0.325230	0.545579	-0.277102	-0.349938	0.153318	-0.462651	-0.357788	0.316765	-0.305029	-0.142601	0.094172	-0.390993	-0.257356	0.299633	-0.609762	-0.380798	0.104546	-0.413614	-0.383415	0.159028	-0.361073	-0.311686	0.084831	-0.389728	-0.349937	0.153318	-0.462651	-0.311685	0.978290	-0.342407	-0.248496	1.009632	-0.524899	-0.153640	1.000270	-0.519620	-0.088684	0.982792	-0.332023	-0.370719	0.901677	-0.401057	-0.385910	0.788690	-0.371918	-0.381440	0.810757	-0.310867	-0.384212	0.735696	-0.276583	-0.390293	0.709250	-0.334342	-0.383001	0.565075	-0.274737	-0.265678	0.571981	-0.244741	-0.389106	0.471549	-0.355624	-0.371773	0.427931	-0.304700	-0.360744	0.365124	-0.366147	-0.378679	0.411882	-0.408417	-0.306823	0.261933	-0.557062	-0.247548	0.237268	-0.510440	-0.244856	0.254118	-0.619924	-0.347938	0.107751	-0.468109	-0.380865	0.132257	-0.535815	-0.289475	0.091671	-0.481012	-0.036936	0.910323	-0.408647	-0.038952	0.706014	-0.367007	-0.054458	0.707278	-0.306060	-0.069109	0.625419	-0.309340	-0.054210	0.619017	-0.372052	-0.079222	0.532150	-0.346206	-0.185617	0.551884	-0.348527	-0.068518	0.309697	-0.384504	-0.094395	0.315207	-0.326083	-0.107468	0.228456	-0.335525	-0.082585	0.228180	-0.392639	-0.115638	0.095172	-0.396077	-0.189096	0.120830	-0.364216	-0.167773	0.056134	-0.449277	-0.123318	0.060474	-0.216277	-0.075951	0.044310	-0.266844	-0.176907	0.053610	-0.230522
47	0.460000	-0.195318	0.894732	-0.382335	-0.201025	0.875785	-0.240512	-0.052273	0.897260	-0.376241	-0.198628	1.036647	-0.363509	-0.133755	0.533510	-0.342969	-0.132346	0.569170	0.019768	0.230596	0.523492	-0.343400	-0.123827	0.896112	-0.378655	-0.151464	0.095907	-0.387226	-0.053256	0.050783	0.019656	0.257562	0.089412	-0.486671	-0.134528	0.514423	-0.344900	-0.104716	0.085427	-0.231436	-0.099270	0.312861	-0.239420	0.118180	0.078484	-0.277137	-0.150620	0.078702	-0.454297	-0.089415	0.087668	-0.157148	-0.087600	0.163480	-0.159810	-0.015116	0.085354	-0.172382	-0.104716	0.085427	-0.231436	-0.326555	0.563062	-0.244755	-0.374685	0.712331	0.083906	0.029435	0.527809	-0.176612	-0.266808	0.893352	-0.386015	-0.272254	0.256590	-0.524145	-0.276784	-0.012266	-0.230109	0.122796	0.291739	-0.485919	-0.323985	0.548553	-0.257981	-0.348720	0.150329	-0.427576	-0.353719	0.321375	-0.278112	-0.139729	0.095222	-0.357523	-0.259729	0.289353	-0.583699	-0.378383	0.103987	-0.375536	-0.380050	0.161003	-0.325714	-0.308720	0.085618	-0.352184	-0.348720	0.150329	-0.427577	-0.310771	0.979226	-0.330727	-0.248618	1.010386	-0.513428	-0.153732	1.000982	-0.508383	-0.087722	0.983167	-0.321225	-0.370430	0.902817	-0.388297	-0.385717	0.790253	-0.356603	-0.380701	0.813512	-0.295977	-0.383158	0.739245	-0.260031	-0.389873	0.711689	-0.317257	-0.381787	0.568531	-0.255327	-0.264905	0.576148	-0.226540	-0.388260	0.469771	-0.331007	-0.371103	0.430424	-0.282521	-0.360080	0.364472	-0.339911	-0.378662	0.409458	-0.383758	-0.307947	0.253415	-0.527598	-0.248130	0.231257	-0.480493	-0.246875	0.242863	-0.591100	-0.347094	0.103743	-0.430316	-0.380912	0.124379	-0.498822	-0.288676	0.087437	-0.442926	-0.036580	0.910841	-0.398593	-0.038757	0.706416	-0.360337	-0.054135	0.706639	-0.299375	-0.068899	0.624908	-0.304034	-0.054155	0.619589	-0.366819	-0.078776	0.531998	-0.343034	-0.185379	0.551706	-0.344799	-0.068246	0.309892	-0.383581	-0.093815	0.315072	-0.324970	-0.107009	0.228372	-0.334898	-0.082406	0.228469	-0.392150	-0.115516	0.095336	-0.395966	-0.188927	0.120978	-0.363971	-0.167745	0.056165	-0.449134	-0.123168	0.060381	-0.216139	-0.075852	0.044228	-0.266800	-0.176816	0.053536	-0.230447
48	0.470000	-0.194866	0.895166	-0.371171	-0.200046	0.876140	-0.229339	-0.051793	0.897360	-0.365652	-0.197772	1.037076	-0.352241	-0.133318	0.533349	-0.339632	-0.131111	0.561445	0.023531	0.230795	0.523249	-0.341063	-0.123358	0.896379	-0.367779	-0.151242	0.095977	-0.386670	-0.048056	0.048148	0.018739	0.256617	0.090496	-0.491127	-0.134100	0.514275	-0.341684	-0.104493	0.085258	-0.230896	-0.098941	0.312700	-0.238564	0.118399	0.078276	-0.276617	-0.150409	0.078865	-0.453765	-0.089187	0.087389	-0.156607	-0.087337	0.163203	-0.159163	-0.014890	0.085062	-0.171847	-0.104493	0.085258	-0.230897	-0.325023	0.566102	-0.226829	-0.367962	0.721103	0.100101	0.032004	0.530887	-0.163241	-0.266373	0.893954	-0.374564	-0.273528	0.248604	-0.496238	-0.250651	-0.007459	-0.190095	0.122558	0.300868	-0.482122	-0.322593	0.551119	-0.239543	-0.347344	0.147380	-0.392464	-0.348504	0.325724	-0.251705	-0.136538	0.095725	-0.325278	-0.262604	0.278324	-0.557674	-0.375590	0.103732	-0.337394	-0.375977	0.163180	-0.290474	-0.305321	0.086514	-0.314999	-0.347344	0.147380	-0.392464	-0.309921	0.979893	-0.319045	-0.248790	1.010916	-0.501955	-0.153873	1.001477	-0.497152	-0.086815	0.983313	-0.310438	-0.370183	0.903688	-0.375634	-0.385507	0.791542	-0.341656	-0.379944	0.815865	-0.281415	-0.382034	0.742373	-0.243889	-0.389362	0.713806	-0.300627	-0.380387	0.571563	-0.236690	-0.264048	0.579819	-0.209040	-0.386719	0.466878	-0.305211	-0.371093	0.433473	-0.262513	-0.359417	0.363386	-0.313801	-0.378666	0.406371	-0.359328	-0.309196	0.243898	-0.497509	-0.248864	0.224296	-0.449952	-0.248978	0.230440	-0.561420	-0.346430	0.099342	-0.391942	-0.381096	0.116001	-0.461103	-0.288081	0.082783	-0.404146	-0.036258	0.911160	-0.388547	-0.038553	0.706724	-0.353621	-0.053839	0.705940	-0.292698	-0.068720	0.624352	-0.298746	-0.054083	0.620096	-0.361561	-0.078340	0.531824	-0.339848	-0.185144	0.551512	-0.341058	-0.067989	0.310089	-0.382599	-0.093229	0.314938	-0.323797	-0.106530	0.228297	-0.334239	-0.082225	0.228769	-0.391618	-0.115402	0.095495	-0.395849	-0.188777	0.121121	-0.363739	-0.167727	0.056187	-0.448991	-0.123018	0.060279	-0.216017	-0.075754	0.044149	-0.266768	-0.176720	0.053476	-0.230369
49	0.480000	-0.194458	0.895355	-0.360010	-0.199096	0.876229	-0.218172	-0.051359	0.897246	-0.355075	-0.196989	1.037256	-0.340958	-0.132887	0.533147	-0.336266	-0.130048	0.553720	0.027132	0.230956	0.523049	-0.338537	-0.122934	0.896416	-0.356910	-0.151038	0.096039	-0.386148	-0.043333	0.045467	0.017812	0.255705	0.091589	-0.495153	-0.133679	0.514087	-0.338441	-0.104282	0.085083	-0.230393	-0.098678	0.312535	-0.237732	0.118605	0.078116	-0.276137	-0.150213	0.079024	-0.453268	-0.088972	0.087103	-0.156101	-0.087104	0.162921	-0.158548	-0.014676	0.084781	-0.171349	-0.104282	0.085083	-0.230393	-0.323335	0.568657	-0.209688	-0.361649	0.728654	0.115582	0.034590	0.533603	-0.150285	-0.265981	0.894295	-0.363111	-0.275202	0.240121	-0.468513	-0.214556	0.000215	-0.152712	0.118728	0.313511	-0.488410	-0.321071	0.553206	-0.221861	-0.345915	0.144576	-0.357451	-0.342243	0.329843	-0.225982	-0.133201	0.095611	-0.294391	-0.266162	0.266641	-0.531694	-0.372500	0.103888	-0.299370	-0.371275	0.165643	-0.255547	-0.301595	0.087566	-0.278350	-0.345915	0.144576	-0.357451	-0.309133	0.980281	-0.307348	-0.249008	1.011211	-0.490468	-0.154060	1.001751	-0.485918	-0.085962	0.983229	-0.299652	-0.369973	0.904272	-0.363061	-0.385278	0.792518	-0.327100	-0.379170	0.817763	-0.267196	-0.380853	0.745010	-0.228202	-0.388761	0.715541	-0.284510	-0.378814	0.574090	-0.218896	-0.263101	0.582919	-0.192300	-0.384436	0.462980	-0.278234	-0.371851	0.437047	-0.244900	-0.358774	0.361929	-0.287875	-0.378680	0.402676	-0.335155	-0.310549	0.233536	-0.466727	-0.249738	0.216506	-0.418766	-0.251131	0.216948	-0.530792	-0.346016	0.094720	-0.353002	-0.381480	0.107336	-0.422647	-0.287769	0.077841	-0.364688	-0.035964	0.911283	-0.378496	-0.038333	0.706931	-0.346843	-0.053563	0.705172	-0.286008	-0.068563	0.623743	-0.293449	-0.053987	0.620524	-0.356256	-0.077909	0.531621	-0.336609	-0.184898	0.551300	-0.337266	-0.067749	0.310287	-0.381533	-0.092641	0.314796	-0.322540	-0.106035	0.228225	-0.333530	-0.082046	0.229077	-0.391023	-0.115301	0.095648	-0.395725	-0.188651	0.121254	-0.363521	-0.167716	0.056206	-0.448855	-0.122872	0.060164	-0.215911	-0.075660	0.044073	-0.266747	-0.176618	0.053432	-0.230288
